<svg version="1.1" id="Layer_1" xmlns="http://www.w3.org/2000/svg" xmlns:xlink="http://www.w3.org/1999/xlink" x="0px" y="0px"
	 width="100%" viewBox="0 0 261 261" enable-background="new 0 0 261 261" xml:space="preserve">
<path fill="#605E5E" opacity="1.000000" stroke="none" 
	d="
M1.000000,92.000000 
	C1.000000,61.333340 1.000000,31.166681 1.000000,1.000016 
	C87.999969,1.000011 174.999939,1.000011 261.999939,1.000005 
	C261.999939,87.999947 261.999939,174.999893 261.999969,261.999878 
	C175.000076,261.999939 88.000137,261.999939 1.000104,261.999969 
	C1.000000,205.500000 1.000000,149.000000 1.000000,92.000000 
M170.919159,253.914749 
	C177.936600,253.889160 184.954025,253.863571 192.909821,253.910477 
	C199.933136,253.887070 206.956467,253.863647 214.917953,253.915421 
	C222.606415,253.892090 230.294861,253.868759 238.915680,253.914856 
	C239.747696,253.939972 240.579559,253.978470 241.411758,253.988190 
	C252.991257,254.123627 252.994400,254.122650 252.994247,242.675980 
	C252.993179,168.252106 252.990952,93.828232 252.986877,19.404358 
	C252.986771,17.406540 252.906570,15.407266 252.959564,13.411214 
	C253.060501,9.609180 251.186508,7.954344 247.464035,8.027682 
	C242.638199,8.122758 237.810394,8.116693 232.049637,8.098641 
	C224.359680,8.118984 216.669739,8.139327 208.046585,8.100875 
	C196.688110,8.123025 185.329620,8.145174 173.039703,8.104421 
	C157.351440,8.124876 141.663177,8.145330 125.043121,8.097181 
	C112.023071,8.119838 99.003029,8.142494 85.050568,8.087829 
	C75.695465,8.114269 66.340370,8.140711 56.052933,8.084969 
	C47.031986,8.111774 38.011040,8.138581 28.060995,8.078486 
	C23.039583,8.108016 18.018171,8.137546 12.186240,8.113599 
	C7.350935,8.381629 9.084049,12.166852 9.081152,14.531631 
	C8.986548,91.777367 8.999352,169.023239 9.000924,246.269089 
	C9.001085,254.195435 9.014767,254.195435 17.928082,253.930206 
	C23.282074,253.898285 28.636066,253.866364 34.924198,253.932449 
	C43.943855,253.899216 52.963512,253.865982 62.918629,253.929108 
	C70.941673,253.897339 78.964714,253.865585 87.923058,253.925293 
	C95.944183,253.895096 103.965317,253.864883 112.921875,253.923264 
	C121.942032,253.893906 130.962189,253.864532 140.919037,253.921448 
	C150.606949,253.892471 160.294846,253.863480 170.919159,253.914749 
z"/>
<path fill="#252224" opacity="1.000000" stroke="none" 
	d="
M28.990095,8.165387 
	C38.011040,8.138581 47.031986,8.111774 56.521118,8.583378 
	C57.311016,23.037863 57.673462,36.993141 57.946503,50.950169 
	C58.651962,87.011612 59.394901,123.072586 59.975300,159.136124 
	C60.438122,187.893875 60.659847,216.655472 61.062874,245.414322 
	C61.102257,248.224213 61.663933,251.026779 61.983170,253.832748 
	C52.963512,253.865982 43.943855,253.899216 34.458538,253.425873 
	C33.430264,226.780746 32.924725,200.640839 32.289688,174.504059 
	C31.594032,145.872375 30.633663,117.246521 30.057928,88.612709 
	C29.518822,61.800617 29.331968,34.981441 28.990095,8.165387 
z"/>
<path fill="#393738" opacity="1.000000" stroke="none" 
	d="
M173.971161,8.167323 
	C185.329620,8.145174 196.688110,8.123025 208.516434,8.585644 
	C209.321030,17.387478 209.783752,25.701689 209.969299,34.022079 
	C211.005371,80.476997 212.054840,126.931885 212.935349,173.389893 
	C213.443558,200.203644 213.641953,227.023270 213.979797,253.840240 
	C206.956467,253.863647 199.933136,253.887070 192.351807,253.479401 
	C191.531906,250.405640 191.082077,247.766113 191.037537,245.119766 
	C190.645767,221.840836 190.356430,198.560135 189.945557,175.281586 
	C189.896042,172.475998 189.304321,169.679977 189.064728,166.651978 
	C189.512939,165.869141 189.860352,165.313858 190.522705,164.592987 
	C193.317978,161.910751 195.798340,159.394089 198.575699,156.665665 
	C199.437637,155.641953 199.898666,154.727371 200.583633,154.033997 
	C207.188843,147.347992 207.201126,147.357040 200.220047,140.772339 
	C199.860535,140.433228 199.438477,140.160431 198.894608,139.565598 
	C196.407303,136.866455 194.070908,134.458466 191.623703,131.764008 
	C190.306931,130.093887 189.100983,128.710281 187.988953,126.942627 
	C188.776016,124.355156 189.469147,122.151711 190.419373,120.174133 
	C191.493835,122.002335 192.007629,123.906631 193.215332,125.120613 
	C194.382492,126.293831 196.264648,126.755745 197.832733,127.530113 
	C197.845535,125.924957 198.435196,124.010849 197.769989,122.768806 
	C195.069763,117.727066 191.984222,112.891708 188.909485,107.655708 
	C185.869080,102.516487 182.959946,97.701782 180.000549,92.540665 
	C177.956284,89.171371 175.962296,86.148506 174.085876,82.719528 
	C174.468124,79.346153 174.992157,76.375717 174.955994,73.412117 
	C174.690689,51.663086 174.313248,29.915421 173.971161,8.167323 
z"/>
<path fill="#282627" opacity="1.000000" stroke="none" 
	d="
M62.450897,253.880920 
	C61.663933,251.026779 61.102257,248.224213 61.062874,245.414322 
	C60.659847,216.655472 60.438122,187.893875 59.975300,159.136124 
	C59.394901,123.072586 58.651962,87.011612 57.946503,50.950169 
	C57.673462,36.993141 57.311016,23.037863 56.987286,8.624470 
	C66.340370,8.140711 75.695465,8.114269 85.525009,8.556932 
	C86.333061,16.494696 86.829056,23.960295 86.969971,31.432587 
	C87.399414,54.204319 87.562309,76.981812 88.120529,99.749908 
	C88.278313,106.185173 89.436279,112.595924 90.065025,119.298141 
	C89.915718,119.955307 89.836899,120.332245 89.520309,120.954887 
	C86.148552,126.773613 83.014565,132.346649 79.640625,138.156921 
	C75.070267,145.871994 70.623421,153.286179 66.480629,160.866562 
	C65.242188,163.132614 64.349640,165.826996 64.165054,168.387604 
	C63.430500,178.577469 70.772125,184.475037 83.323395,183.758926 
	C84.415085,183.445786 85.208008,183.219650 86.000793,183.461960 
	C86.329697,207.231552 86.658722,230.532700 86.987755,253.833832 
	C78.964714,253.865585 70.941673,253.897339 62.450897,253.880920 
z"/>
<path fill="#3D3A3C" opacity="1.000000" stroke="none" 
	d="
M214.448883,253.877838 
	C213.641953,227.023270 213.443558,200.203644 212.935349,173.389893 
	C212.054840,126.931885 211.005371,80.476997 209.969299,34.022079 
	C209.783752,25.701689 209.321030,17.387478 208.983032,8.615041 
	C216.669739,8.139327 224.359680,8.118984 232.519302,8.581955 
	C233.642715,38.308071 234.359283,67.549644 234.929962,96.794075 
	C235.374313,119.563774 235.553207,142.338669 236.001358,165.108276 
	C236.583557,194.688873 237.315704,224.266510 237.983322,253.845428 
	C230.294861,253.868759 222.606415,253.892090 214.448883,253.877838 
z"/>
<path fill="#3F3D3E" opacity="1.000000" stroke="none" 
	d="
M238.449493,253.880142 
	C237.315704,224.266510 236.583557,194.688873 236.001358,165.108276 
	C235.553207,142.338669 235.374313,119.563774 234.929962,96.794075 
	C234.359283,67.549644 233.642715,38.308071 232.986206,8.609718 
	C237.810394,8.116693 242.638199,8.122758 247.464035,8.027682 
	C251.186508,7.954344 253.060501,9.609180 252.959564,13.411214 
	C252.906570,15.407266 252.986771,17.406540 252.986877,19.404358 
	C252.990952,93.828232 252.993179,168.252106 252.994247,242.675980 
	C252.994400,254.122650 252.991257,254.123627 241.411758,253.988190 
	C240.579559,253.978470 239.747696,253.939972 238.449493,253.880142 
z"/>
<path fill="#211E20" opacity="1.000000" stroke="none" 
	d="
M28.525545,8.121937 
	C29.331968,34.981441 29.518822,61.800617 30.057928,88.612709 
	C30.633663,117.246521 31.594032,145.872375 32.289688,174.504059 
	C32.924725,200.640839 33.430264,226.780746 33.991470,253.376862 
	C28.636066,253.866364 23.282074,253.898285 17.462868,253.424515 
	C16.668139,238.604828 16.285461,224.291840 16.019453,209.976654 
	C15.326479,172.684494 14.611930,135.392456 14.045402,98.098267 
	C13.590051,68.122810 13.338655,38.144257 12.996759,8.167075 
	C18.018171,8.137546 23.039583,8.108016 28.525545,8.121937 
z"/>
<path fill="#333032" opacity="1.000000" stroke="none" 
	d="
M173.505432,8.135872 
	C174.313248,29.915421 174.690689,51.663086 174.955994,73.412117 
	C174.992157,76.375717 174.468124,79.346153 173.811920,82.536217 
	C172.720062,81.927750 172.019730,81.096489 171.148529,80.001419 
	C167.665405,77.441521 164.353119,75.145439 160.849487,72.563995 
	C157.443329,70.905090 154.228516,69.531540 150.633270,68.065567 
	C147.174301,67.360657 144.095749,66.748192 140.609741,66.076492 
	C136.790558,65.972511 133.378860,65.927765 129.568878,65.909897 
	C128.108002,65.899094 127.045410,65.861420 126.050446,65.420074 
	C126.398254,61.372341 126.960007,57.724365 126.909615,54.084866 
	C126.697670,38.777126 126.302818,23.471920 125.974907,8.165786 
	C141.663177,8.145330 157.351440,8.124876 173.505432,8.135872 
z"/>
<path fill="#2D2A2C" opacity="1.000000" stroke="none" 
	d="
M125.509018,8.131483 
	C126.302818,23.471920 126.697670,38.777126 126.909615,54.084866 
	C126.960007,57.724365 126.398254,61.372341 125.639687,65.463104 
	C122.779457,66.307968 120.397606,66.706131 117.635513,67.097794 
	C114.490158,68.052696 111.725029,69.014084 108.597618,70.028946 
	C107.296249,70.403938 106.331718,70.666130 105.422050,71.056259 
	C97.100685,74.625130 96.861336,75.393723 101.498093,83.327713 
	C102.166771,84.471886 102.697563,85.718140 103.496208,86.760864 
	C105.936913,89.947487 105.793182,92.524879 102.471344,95.179047 
	C100.604446,96.670700 99.399788,98.991203 97.628311,101.149246 
	C96.229568,103.543770 94.911240,105.653015 94.012009,107.927917 
	C92.573616,111.566788 91.413353,115.315582 90.135513,119.017914 
	C89.436279,112.595924 88.278313,106.185173 88.120529,99.749908 
	C87.562309,76.981812 87.399414,54.204319 86.969971,31.432587 
	C86.829056,23.960295 86.333061,16.494696 85.991211,8.595594 
	C99.003029,8.142494 112.023071,8.119838 125.509018,8.131483 
z"/>
<path fill="#2F2D2E" opacity="1.000000" stroke="none" 
	d="
M139.982346,253.835175 
	C130.962189,253.864532 121.942032,253.893906 112.450363,253.448730 
	C111.652695,245.506577 111.224785,238.041702 111.021683,230.570724 
	C110.606148,215.285629 110.349838,199.996170 109.919106,184.711563 
	C109.864204,182.763443 109.158371,180.833649 108.952362,178.621094 
	C111.775124,175.582886 114.399635,172.818939 117.377914,170.083313 
	C119.417236,170.795883 121.056602,171.767838 122.806892,172.048813 
	C123.750031,172.200226 125.823189,171.074890 125.784447,170.684662 
	C125.416222,166.976135 128.034988,166.508240 130.547653,165.475555 
	C131.564865,165.057495 132.053925,163.354385 132.783310,162.236038 
	C131.556412,161.797989 130.267776,160.866486 129.113770,161.010895 
	C125.035812,161.521225 121.003929,162.399826 116.769554,162.852081 
	C111.010674,156.434692 110.800499,147.332977 116.361122,140.875992 
	C118.507042,138.761215 120.379616,136.823486 122.544594,134.678864 
	C125.345757,131.920258 127.854523,129.368546 130.590942,126.547653 
	C133.572159,123.534950 136.325714,120.791435 139.381943,118.218719 
	C140.137695,119.892502 140.590775,121.395493 140.924316,123.302628 
	C141.192490,136.780701 141.580200,149.854645 141.770538,163.197540 
	C139.008347,166.214371 136.443527,168.962265 133.606537,171.913086 
	C126.432152,178.401184 120.546623,184.480209 121.705223,195.545715 
	C123.044479,208.336624 122.019341,208.444977 135.431381,207.898865 
	C137.228378,208.009430 138.611908,208.083008 139.995972,208.615417 
	C139.991806,223.994553 139.987076,238.914871 139.982346,253.835175 
z"/>
<path fill="#2B292A" opacity="1.000000" stroke="none" 
	d="
M108.754105,178.895386 
	C109.158371,180.833649 109.864204,182.763443 109.919106,184.711563 
	C110.349838,199.996170 110.606148,215.285629 111.021683,230.570724 
	C111.224785,238.041702 111.652695,245.506577 111.982651,253.404449 
	C103.965317,253.864883 95.944183,253.895096 87.455406,253.879562 
	C86.658722,230.532700 86.329697,207.231552 86.229317,183.240204 
	C89.161255,179.049789 92.581253,180.196304 96.285500,181.289337 
	C99.738167,181.007095 102.866676,180.519669 106.278175,179.933350 
	C107.292145,179.521423 108.023125,179.208405 108.754105,178.895386 
z"/>
<path fill="#373436" opacity="1.000000" stroke="none" 
	d="
M188.963928,166.879547 
	C189.304321,169.679977 189.896042,172.475998 189.945557,175.281586 
	C190.356430,198.560135 190.645767,221.840836 191.037537,245.119766 
	C191.082077,247.766113 191.531906,250.405640 191.882629,253.443161 
	C184.954025,253.863571 177.936600,253.889160 170.453461,253.418396 
	C169.315674,231.237030 168.643600,209.551987 168.133316,187.596100 
	C169.556610,185.903976 170.818115,184.482712 172.360229,182.885559 
	C175.441055,179.841415 178.241272,176.973190 181.325348,173.931595 
	C184.060776,171.465332 186.512344,169.172440 188.963928,166.879547 
z"/>
<path fill="#333132" opacity="1.000000" stroke="none" 
	d="
M167.971527,187.866943 
	C168.643600,209.551987 169.315674,231.237030 169.985260,253.378265 
	C160.294846,253.863480 150.606949,253.892471 140.450684,253.878311 
	C139.987076,238.914871 139.991806,223.994553 140.412048,208.570816 
	C142.218292,207.991425 143.609055,207.915466 145.353592,207.849609 
	C147.820053,206.278137 149.932739,204.696594 152.319763,202.932144 
	C154.413727,200.867645 156.233353,198.986038 158.329254,196.926208 
	C160.415970,194.871628 162.226410,192.995255 164.308105,190.949631 
	C165.710068,189.809235 166.840790,188.838089 167.971527,187.866943 
z"/>
<path fill="#201D1F" opacity="1.000000" stroke="none" 
	d="
M12.591499,8.140337 
	C13.338655,38.144257 13.590051,68.122810 14.045402,98.098267 
	C14.611930,135.392456 15.326479,172.684494 16.019453,209.976654 
	C16.285461,224.291840 16.668139,238.604828 16.997204,253.376434 
	C9.014767,254.195435 9.001085,254.195435 9.000924,246.269089 
	C8.999352,169.023239 8.986548,91.777367 9.081152,14.531631 
	C9.084049,12.166852 7.350935,8.381629 12.591499,8.140337 
z"/>
<path fill="#373435" opacity="1.000000" stroke="none" 
	d="
M190.162262,119.948257 
	C189.469147,122.151711 188.776016,124.355156 187.670593,126.831627 
	C185.843262,126.115913 184.428207,125.127167 182.649261,124.097961 
	C179.529678,126.387726 176.774033,128.717957 173.762939,131.223511 
	C172.375610,132.275452 171.243729,133.152069 169.967667,133.646881 
	C169.826340,129.175888 169.829208,125.086708 169.995636,121.273315 
	C171.677231,121.892906 173.195297,122.236710 174.713348,122.580505 
	C174.641205,121.095695 175.014099,119.394112 174.415710,118.165634 
	C172.407135,114.042076 170.052170,110.087227 167.981842,105.678543 
	C168.772339,99.154739 169.410782,93.020203 170.326508,87.086014 
	C173.038940,90.872658 175.474106,94.458961 177.991791,98.391403 
	C180.448044,102.915840 182.821777,107.094139 185.378769,111.589081 
	C187.095444,114.586578 188.628860,117.267418 190.162262,119.948257 
z"/>
<path fill="#69B140" opacity="1.000000" stroke="none" 
	d="
M189.064728,166.651993 
	C186.512344,169.172440 184.060776,171.465332 181.153519,173.641876 
	C180.117355,172.312134 179.536880,171.098740 179.123642,169.603943 
	C181.420471,167.093369 183.550064,164.864197 185.692902,162.621155 
	C183.624573,160.216278 181.811096,158.107742 180.070465,155.587738 
	C180.504501,153.527969 180.865677,151.879639 181.515015,150.438690 
	C184.542786,153.174561 187.282410,155.703064 190.021530,158.690552 
	C190.083282,161.019226 190.145523,162.888885 190.207764,164.758560 
	C189.860352,165.313858 189.512939,165.869141 189.064728,166.651993 
z"/>
<path fill="#8DC641" opacity="1.000000" stroke="none" 
	d="
M190.419373,120.174126 
	C188.628860,117.267418 187.095444,114.586578 185.660950,111.358902 
	C186.853516,109.868111 187.947144,108.924164 189.040771,107.980225 
	C191.984222,112.891708 195.069763,117.727066 197.769989,122.768806 
	C198.435196,124.010849 197.845535,125.924957 197.832733,127.530113 
	C196.264648,126.755745 194.382492,126.293831 193.215332,125.120613 
	C192.007629,123.906631 191.493835,122.002335 190.419373,120.174126 
z"/>
<path fill="#81C041" opacity="1.000000" stroke="none" 
	d="
M188.909485,107.655701 
	C187.947144,108.924164 186.853516,109.868111 185.477692,111.042244 
	C182.821777,107.094139 180.448044,102.915840 178.147644,98.080597 
	C178.830933,95.911469 179.440887,94.399277 180.050827,92.887085 
	C182.959946,97.701782 185.869080,102.516487 188.909485,107.655701 
z"/>
<path fill="#77B941" opacity="1.000000" stroke="none" 
	d="
M180.000549,92.540665 
	C179.440887,94.399277 178.830933,95.911469 178.065125,97.734459 
	C175.474106,94.458961 173.038940,90.872658 170.197784,86.799362 
	C169.277618,85.651878 168.763474,84.991386 168.538605,84.019348 
	C169.658401,82.560280 170.488892,81.412758 171.319382,80.265228 
	C172.019730,81.096489 172.720062,81.927750 173.694336,82.942322 
	C175.962296,86.148506 177.956284,89.171371 180.000549,92.540665 
z"/>
<path fill="#8BC741" opacity="1.000000" stroke="none" 
	d="
M199.045532,139.856750 
	C199.438477,140.160431 199.860535,140.433228 200.220047,140.772339 
	C207.201126,147.357040 207.188843,147.347992 200.583633,154.033997 
	C199.898666,154.727371 199.437637,155.641953 198.401596,156.220886 
	C197.332916,154.866547 196.735352,153.745193 196.346283,152.339386 
	C197.715302,150.746872 198.875824,149.438828 200.106827,148.051346 
	C198.724380,146.297119 197.529709,144.781158 196.589294,143.004868 
	C197.577545,141.781937 198.311539,140.819351 199.045532,139.856750 
z"/>
<path fill="#7BBA41" opacity="1.000000" stroke="none" 
	d="
M198.894608,139.565598 
	C198.311539,140.819351 197.577545,141.781937 196.319458,142.846191 
	C193.296936,140.391632 190.798538,137.835434 188.537689,135.036163 
	C189.761658,133.878891 190.748093,132.964691 191.734528,132.050507 
	C194.070908,134.458466 196.407303,136.866455 198.894608,139.565598 
z"/>
<path fill="#6BAE40" opacity="1.000000" stroke="none" 
	d="
M191.623718,131.764008 
	C190.748093,132.964691 189.761658,133.878891 188.278503,134.877991 
	C186.170258,133.360794 184.558762,131.758682 182.951538,129.726105 
	C182.974945,127.576546 182.994049,125.857483 183.013168,124.138420 
	C184.428207,125.127167 185.843262,126.115913 187.576660,127.215652 
	C189.100983,128.710281 190.306931,130.093887 191.623718,131.764008 
z"/>
<path fill="#7DBD41" opacity="1.000000" stroke="none" 
	d="
M196.137787,152.623840 
	C196.735352,153.745193 197.332916,154.866547 198.104584,156.432648 
	C195.798340,159.394089 193.317978,161.910751 190.522705,164.592987 
	C190.145523,162.888885 190.083282,161.019226 190.301208,158.511337 
	C192.433517,156.123367 194.285645,154.373596 196.137787,152.623840 
z"/>
<path fill="#016E3C" opacity="1.000000" stroke="none" 
	d="
M83.024635,183.845917 
	C70.772125,184.475037 63.430500,178.577469 64.165054,168.387604 
	C64.349640,165.826996 65.242188,163.132614 66.480629,160.866562 
	C70.623421,153.286179 75.070267,145.871994 79.882156,138.366119 
	C81.269455,139.235153 82.175262,140.132187 82.956879,141.356445 
	C78.626213,148.990692 74.292809,156.228348 70.251991,163.625854 
	C66.798470,169.948196 68.658905,176.132050 74.797935,178.302872 
	C77.287193,179.183105 80.239128,178.754913 82.983887,179.332916 
	C82.999710,181.111145 83.012177,182.478531 83.024635,183.845917 
z"/>
<path fill="#0A773D" opacity="1.000000" stroke="none" 
	d="
M83.081078,141.029221 
	C82.175262,140.132187 81.269455,139.235153 80.122116,138.128891 
	C83.014565,132.346649 86.148552,126.773613 89.680763,121.272903 
	C90.766449,122.573120 91.453903,123.801025 92.037521,125.369247 
	C87.503220,133.516571 87.503220,133.516571 91.997803,139.260452 
	C91.620850,141.059799 91.306519,142.495483 90.720413,143.755798 
	C87.982635,142.759323 87.167198,137.171570 83.081078,141.029221 
z"/>
<path fill="#157E3D" opacity="1.000000" stroke="none" 
	d="
M92.141357,125.028931 
	C91.453903,123.801025 90.766449,122.573120 89.918533,121.027206 
	C89.836899,120.332245 89.915718,119.955307 90.065025,119.298141 
	C91.413353,115.315582 92.573616,111.566788 94.012009,107.927917 
	C94.911240,105.653015 96.229568,103.543770 97.896912,101.323654 
	C99.297905,102.220001 100.161812,103.152885 100.895233,104.417000 
	C99.746056,107.355148 98.797607,109.992264 97.692719,112.562126 
	C95.896088,116.740868 93.997124,120.875618 92.141357,125.028931 
z"/>
<path fill="#0D7A3D" opacity="1.000000" stroke="none" 
	d="
M83.323395,183.758926 
	C83.012177,182.478531 82.999710,181.111145 83.221901,179.105316 
	C87.133789,174.925613 90.833450,171.510757 95.979820,176.648514 
	C95.974327,178.395767 95.967842,179.739975 95.961349,181.084167 
	C92.581253,180.196304 89.161255,179.049789 86.229446,182.771729 
	C85.208008,183.219650 84.415085,183.445786 83.323395,183.758926 
z"/>
<path fill="#38943E" opacity="1.000000" stroke="none" 
	d="
M118.015762,67.104294 
	C120.397606,66.706131 122.779457,66.307968 125.572067,65.866768 
	C127.045410,65.861420 128.108002,65.899094 129.571564,66.349068 
	C129.655182,69.503487 129.337814,72.245613 128.749481,75.292107 
	C127.824379,80.655952 128.825638,86.449348 121.573845,88.623627 
	C124.831963,92.181435 127.466408,95.058220 129.903412,98.206924 
	C129.122665,99.686501 128.539368,100.894150 127.669220,101.928238 
	C125.632454,100.041565 124.023537,98.144905 122.095444,96.663727 
	C119.887131,94.967285 117.395432,93.639740 114.913872,91.801949 
	C114.519447,90.259598 114.238007,89.067215 114.166367,87.613617 
	C119.111862,84.437935 124.686043,82.334305 123.099754,74.743927 
	C122.500374,71.875908 121.727699,70.936157 118.959473,71.414276 
	C118.606384,69.754486 118.311073,68.429390 118.015762,67.104294 
z"/>
<path fill="#479E3F" opacity="1.000000" stroke="none" 
	d="
M129.020447,74.987732 
	C129.337814,72.245613 129.655182,69.503487 129.969849,66.322197 
	C133.378860,65.927765 136.790558,65.972511 140.608673,66.465469 
	C141.018723,68.210487 141.022369,69.507286 140.631561,70.844757 
	C137.834763,70.606064 135.432404,70.326675 133.030060,70.047287 
	C132.888107,70.438477 132.746170,70.829666 132.604218,71.220856 
	C134.418747,73.441322 136.233292,75.661789 137.961182,78.290268 
	C137.463287,80.033386 137.052078,81.368500 136.367691,82.494034 
	C133.736496,79.852211 131.378464,77.419975 129.020447,74.987732 
z"/>
<path fill="#6BB140" opacity="1.000000" stroke="none" 
	d="
M171.148529,80.001419 
	C170.488892,81.412758 169.658401,82.560280 168.276428,83.849533 
	C165.155258,81.944855 162.585571,79.898460 160.071243,77.491928 
	C160.431351,75.704323 160.736084,74.276840 161.040833,72.849365 
	C164.353119,75.145439 167.665405,77.441521 171.148529,80.001419 
z"/>
<path fill="#5EAA40" opacity="1.000000" stroke="none" 
	d="
M160.849487,72.563995 
	C160.736084,74.276840 160.431351,75.704323 159.743561,77.395813 
	C156.247147,76.030144 153.133804,74.400467 150.103638,72.444473 
	C150.462448,70.798103 150.738068,69.478050 151.013687,68.157997 
	C154.228516,69.531540 157.443329,70.905090 160.849487,72.563995 
z"/>
<path fill="#55A53F" opacity="1.000000" stroke="none" 
	d="
M150.633270,68.065567 
	C150.738068,69.478050 150.462448,70.798103 149.719696,72.456932 
	C146.510376,72.131828 143.768204,71.467949 141.026016,70.804077 
	C141.022369,69.507286 141.018723,68.210487 141.016144,66.524712 
	C144.095749,66.748192 147.174301,67.360657 150.633270,68.065567 
z"/>
<path fill="#21863E" opacity="1.000000" stroke="none" 
	d="
M113.956566,87.874832 
	C114.238007,89.067215 114.519447,90.259598 114.713898,92.066101 
	C110.093170,96.482079 105.559448,100.283928 101.025719,104.085770 
	C100.161812,103.152885 99.297905,102.220001 98.165390,101.112717 
	C99.399788,98.991203 100.604446,96.670700 102.471344,95.179047 
	C105.793182,92.524879 105.936913,89.947487 103.496208,86.760864 
	C102.697563,85.718140 102.166771,84.471886 101.498093,83.327713 
	C96.861336,75.393723 97.100685,74.625130 105.422050,71.056259 
	C106.331718,70.666130 107.296249,70.403938 108.730621,70.361694 
	C109.494926,71.803658 109.763947,72.966324 109.799408,74.361839 
	C107.905670,75.559250 106.245483,76.523804 104.157219,77.737068 
	C105.818237,80.728767 106.989853,83.657028 108.909866,85.961853 
	C109.912605,87.165558 112.231903,87.272514 113.956566,87.874832 
z"/>
<path fill="#2C8B3E" opacity="1.000000" stroke="none" 
	d="
M110.032967,74.128998 
	C109.763947,72.966324 109.494926,71.803658 109.092911,70.308235 
	C111.725029,69.014084 114.490158,68.052696 117.635521,67.097794 
	C118.311073,68.429390 118.606384,69.754486 118.581573,71.510895 
	C115.518623,72.671135 112.775795,73.400063 110.032967,74.128998 
z"/>
<path fill="#343233" opacity="1.000000" stroke="none" 
	d="
M169.832062,120.997528 
	C169.829208,125.086708 169.826340,129.175888 169.796295,133.928497 
	C168.183426,136.400558 166.597748,138.209183 164.761581,140.233383 
	C161.899582,143.240753 159.288040,146.032547 156.416748,149.008438 
	C154.400742,151.049179 152.644470,152.905823 150.612732,154.956131 
	C147.826828,157.712524 145.316391,160.275253 142.596512,162.861176 
	C142.387054,162.884384 141.967896,162.928589 141.967896,162.928589 
	C141.580200,149.854645 141.192490,136.780701 141.168259,123.496078 
	C141.762466,123.859909 141.993195,124.434425 142.211761,125.388840 
	C143.856354,131.629837 145.389023,137.531433 147.276657,143.317215 
	C147.645294,144.447128 149.391510,145.127625 150.502335,146.015396 
	C150.963165,144.755707 152.061905,143.327148 151.780457,142.263962 
	C150.063263,135.777344 148.032547,129.373734 146.075562,122.535606 
	C146.769974,118.144424 142.004593,113.707169 147.323593,109.903763 
	C150.743393,106.501991 153.878326,103.274681 157.329163,100.168236 
	C159.742355,103.202637 161.839615,106.116180 164.019348,109.379105 
	C166.011902,113.484833 167.921982,117.241180 169.832062,120.997528 
z"/>
<path fill="#27883E" opacity="1.000000" stroke="none" 
	d="
M108.952362,178.621109 
	C108.023125,179.208405 107.292145,179.521423 106.223656,179.569550 
	C105.584625,177.867294 105.283089,176.429932 105.221138,174.760590 
	C106.697739,173.447174 107.994049,172.425812 109.161224,171.273636 
	C113.526260,166.964661 112.456207,162.970520 106.453407,161.155182 
	C105.677971,160.920685 104.822350,160.951355 104.003159,160.477905 
	C103.999916,158.825073 103.997391,157.553528 104.334099,156.143600 
	C109.312454,152.283203 109.169907,150.159439 104.044197,145.582886 
	C104.425972,144.129562 104.760551,143.022079 105.465302,141.930298 
	C108.542023,140.254486 111.248581,138.562973 114.037094,137.203949 
	C114.775299,138.708633 115.431541,139.880844 116.087784,141.053040 
	C110.800499,147.332977 111.010674,156.434692 116.705360,163.192596 
	C116.892174,165.898224 116.958160,167.976608 117.024147,170.054993 
	C114.399635,172.818939 111.775124,175.582886 108.952362,178.621109 
z"/>
<path fill="#016F3C" opacity="1.000000" stroke="none" 
	d="
M135.017899,207.861893 
	C122.019341,208.444977 123.044479,208.336624 121.705223,195.545715 
	C120.546623,184.480209 126.432152,178.401184 133.714523,172.298996 
	C134.436111,173.764664 134.777557,175.047379 134.929657,176.589050 
	C129.311157,181.471039 126.031769,186.693100 126.809464,194.489304 
	C127.621208,202.626938 127.005608,202.688339 135.038422,203.545532 
	C135.027283,205.247330 135.022598,206.554611 135.017899,207.861893 
z"/>
<path fill="#4EA13F" opacity="1.000000" stroke="none" 
	d="
M142.223923,125.008942 
	C141.993195,124.434425 141.762466,123.859909 141.287781,123.091942 
	C140.590775,121.395493 140.137695,119.892502 139.141602,117.979172 
	C138.049774,116.338959 137.500977,115.109070 137.023590,113.646835 
	C137.044479,112.648895 136.993973,111.883293 136.986374,110.735962 
	C137.368042,108.863869 137.706818,107.373520 138.335175,106.060349 
	C140.852280,108.965828 142.888306,107.714088 145.072632,106.219406 
	C145.843765,107.694839 146.441238,108.886528 147.038712,110.078224 
	C142.004593,113.707169 146.769974,118.144424 145.806793,122.700798 
	C144.453888,123.851517 143.338898,124.430222 142.223923,125.008942 
z"/>
<path fill="#38933E" opacity="1.000000" stroke="none" 
	d="
M117.377914,170.083313 
	C116.958160,167.976608 116.892174,165.898224 116.890388,163.479324 
	C121.003929,162.399826 125.035812,161.521225 129.113770,161.010895 
	C130.267776,160.866486 131.556412,161.797989 132.783310,162.236038 
	C132.053925,163.354385 131.564865,165.057495 130.547653,165.475555 
	C128.034988,166.508240 125.416222,166.976135 125.784447,170.684662 
	C125.823189,171.074890 123.750031,172.200226 122.806892,172.048813 
	C121.056602,171.767838 119.417236,170.795883 117.377914,170.083313 
z"/>
<path fill="#117A3D" opacity="1.000000" stroke="none" 
	d="
M135.118988,176.330078 
	C134.777557,175.047379 134.436111,173.764664 133.986694,172.096069 
	C136.443527,168.962265 139.008347,166.214371 141.770538,163.197540 
	C141.967896,162.928589 142.387054,162.884384 142.796310,163.114868 
	C144.105972,164.241394 145.006393,165.137436 145.728912,166.303772 
	C142.073669,169.826050 138.596329,173.078064 135.118988,176.330078 
z"/>
<path fill="#439C3F" opacity="1.000000" stroke="none" 
	d="
M136.952194,113.879181 
	C137.500977,115.109070 138.049774,116.338959 138.838913,117.808380 
	C136.325714,120.791435 133.572159,123.534950 130.447052,126.140625 
	C129.701691,124.627838 129.327866,123.252914 129.127197,121.599518 
	C131.850967,118.840424 134.401581,116.359795 136.952194,113.879181 
z"/>
<path fill="#3A953E" opacity="1.000000" stroke="none" 
	d="
M128.954041,121.877991 
	C129.327866,123.252914 129.701691,124.627838 130.219391,126.409805 
	C127.854523,129.368546 125.345757,131.920258 122.461761,134.249908 
	C121.710472,132.643768 121.334412,131.259720 121.133011,129.598877 
	C123.856461,126.840736 126.405251,124.359367 128.954041,121.877991 
z"/>
<path fill="#31903E" opacity="1.000000" stroke="none" 
	d="
M120.958359,129.875656 
	C121.334412,131.259720 121.710472,132.643768 122.169357,134.456787 
	C120.379616,136.823486 118.507042,138.761215 116.361122,140.875992 
	C115.431541,139.880844 114.775299,138.708633 114.214539,136.930771 
	C116.526138,134.175293 118.742249,132.025482 120.958359,129.875656 
z"/>
<path fill="#117E3D" opacity="1.000000" stroke="none" 
	d="
M135.431381,207.898865 
	C135.022598,206.554611 135.027283,205.247330 135.486908,203.511108 
	C138.958145,203.107407 141.974426,203.132660 144.990402,203.548370 
	C144.993317,205.239044 144.996567,206.539276 144.999817,207.839508 
	C143.609055,207.915466 142.218292,207.991425 140.411484,208.111984 
	C138.611908,208.083008 137.228378,208.009430 135.431381,207.898865 
z"/>
<path fill="#1C823D" opacity="1.000000" stroke="none" 
	d="
M104.981552,174.992584 
	C105.283089,176.429932 105.584625,177.867294 105.940674,179.668442 
	C102.866676,180.519669 99.738167,181.007095 96.285507,181.289337 
	C95.967842,179.739975 95.974327,178.395767 96.327957,176.749542 
	C99.443924,175.962540 102.212738,175.477570 104.981552,174.992584 
z"/>
<path fill="#57A73F" opacity="1.000000" stroke="none" 
	d="
M178.956406,169.885345 
	C179.536880,171.098740 180.117355,172.312134 180.869659,173.815247 
	C178.241272,176.973190 175.441055,179.841415 172.166229,182.612381 
	C171.116394,181.308014 170.541183,180.100906 170.139618,178.615341 
	C173.194321,175.519714 176.075363,172.702530 178.956406,169.885345 
z"/>
<path fill="#469D3F" opacity="1.000000" stroke="none" 
	d="
M169.965973,178.893799 
	C170.541183,180.100906 171.116394,181.308014 171.885620,182.788269 
	C170.818115,184.482712 169.556610,185.903976 168.133301,187.596100 
	C166.840790,188.838089 165.710068,189.809235 164.220123,190.578461 
	C163.562836,188.879837 163.264801,187.383102 163.141510,185.611542 
	C165.532822,183.189056 167.749405,181.041428 169.965973,178.893799 
z"/>
<path fill="#3A953E" opacity="1.000000" stroke="none" 
	d="
M162.966751,185.886383 
	C163.264801,187.383102 163.562836,188.879837 163.948868,190.747711 
	C162.226410,192.995255 160.415970,194.871628 158.212738,196.563446 
	C157.535828,194.880524 157.251709,193.382126 157.143219,191.612549 
	C159.201477,189.523041 161.084122,187.704712 162.966751,185.886383 
z"/>
<path fill="#21863E" opacity="1.000000" stroke="none" 
	d="
M145.353607,207.849609 
	C144.996567,206.539276 144.993317,205.239044 145.269958,203.363724 
	C147.349670,201.152725 149.149506,199.516800 151.011597,198.257751 
	C151.397690,200.128098 151.721558,201.621582 152.045425,203.115051 
	C149.932739,204.696594 147.820053,206.278137 145.353607,207.849609 
z"/>
<path fill="#2D8E3E" opacity="1.000000" stroke="none" 
	d="
M152.319763,202.932144 
	C151.721558,201.621582 151.397690,200.128098 151.183548,197.993805 
	C152.541199,195.939819 153.789139,194.526672 155.288269,192.975433 
	C156.015503,192.519485 156.491547,192.201614 156.967575,191.883728 
	C157.251709,193.382126 157.535828,194.880524 157.936462,196.741684 
	C156.233353,198.986038 154.413727,200.867645 152.319763,202.932144 
z"/>
<path fill="#343233" opacity="1.000000" stroke="none" 
	d="
M140.631561,70.844757 
	C143.768204,71.467949 146.510376,72.131828 149.636505,72.783249 
	C153.133804,74.400467 156.247147,76.030144 159.688171,77.755943 
	C162.585571,79.898460 165.155258,81.944855 167.987137,84.161072 
	C168.763474,84.991386 169.277618,85.651878 169.920502,86.599022 
	C169.410782,93.020203 168.772339,99.154739 167.783401,105.643074 
	C167.432892,105.996880 167.041580,105.899620 166.974091,105.556763 
	C163.972672,100.786316 161.038727,96.358727 157.938187,91.638939 
	C153.190689,88.520325 148.609772,85.693909 143.792664,82.646812 
	C141.720261,80.911507 139.884048,79.396881 138.047836,77.882256 
	C136.233292,75.661789 134.418747,73.441322 132.604218,71.220856 
	C132.746170,70.829666 132.888107,70.438477 133.030060,70.047287 
	C135.432404,70.326675 137.834763,70.606064 140.631561,70.844757 
z"/>
<path fill="#4EA03F" opacity="1.000000" stroke="none" 
	d="
M165.012054,140.017822 
	C166.597748,138.209183 168.183426,136.400558 169.940475,134.310303 
	C171.243729,133.152069 172.375610,132.275452 173.869324,131.515839 
	C175.076660,132.747726 175.922150,133.862610 176.655396,135.273926 
	C175.168900,137.139847 173.794632,138.709335 172.336319,140.374802 
	C173.296265,141.703888 174.138046,142.869385 174.851074,144.351715 
	C174.126968,146.156708 173.531631,147.644852 172.670319,148.945374 
	C170.685074,147.384628 168.965836,146.011505 167.090317,144.301453 
	C166.293396,142.648941 165.652725,141.333389 165.012054,140.017822 
z"/>
<path fill="#70B540" opacity="1.000000" stroke="none" 
	d="
M167.041580,105.899612 
	C167.041580,105.899620 167.432892,105.996880 167.631348,106.032349 
	C170.052170,110.087227 172.407135,114.042076 174.415710,118.165634 
	C175.014099,119.394112 174.641205,121.095695 174.713348,122.580505 
	C173.195297,122.236710 171.677231,121.892906 169.995621,121.273323 
	C167.921982,117.241180 166.011902,113.484833 164.267639,109.183380 
	C165.302841,107.725388 166.172211,106.812500 167.041580,105.899612 
z"/>
<path fill="#5EAA40" opacity="1.000000" stroke="none" 
	d="
M176.767624,134.977493 
	C175.922150,133.862610 175.076660,132.747726 174.124771,131.340515 
	C176.774033,128.717957 179.529678,126.387726 182.649261,124.097961 
	C182.994049,125.857483 182.974945,127.576546 182.641022,129.817123 
	C180.473358,131.884918 178.620483,133.431213 176.767624,134.977493 
z"/>
<path fill="#353234" opacity="1.000000" stroke="none" 
	d="
M167.246582,144.638397 
	C168.965836,146.011505 170.685074,147.384628 172.841766,149.223297 
	C175.518692,151.792297 177.758163,153.895737 179.997635,155.999191 
	C181.811096,158.107742 183.624573,160.216278 185.692902,162.621155 
	C183.550064,164.864197 181.420471,167.093369 179.123642,169.603943 
	C176.075363,172.702530 173.194321,175.519714 170.139618,178.615341 
	C167.749405,181.041428 165.532822,183.189056 163.141510,185.611542 
	C161.084122,187.704712 159.201477,189.523041 157.143219,191.612549 
	C156.491547,192.201614 156.015503,192.519485 155.194427,192.559906 
	C154.564423,184.408356 154.440491,176.523239 153.904053,168.666306 
	C153.724670,166.039062 152.491592,163.483749 151.805634,160.677765 
	C151.982010,160.176788 152.066940,159.886002 152.391327,159.352554 
	C154.762573,157.046173 156.868378,154.974869 159.247528,152.721954 
	C162.096115,149.906357 164.671356,147.272385 167.246582,144.638397 
z"/>
<path fill="#373536" opacity="1.000000" stroke="none" 
	d="
M176.655396,135.273926 
	C178.620483,133.431213 180.473358,131.884918 182.636734,130.247620 
	C184.558762,131.758682 186.170258,133.360794 188.040955,135.121063 
	C190.798538,137.835434 193.296936,140.391632 196.065186,143.106506 
	C197.529709,144.781158 198.724380,146.297119 200.106827,148.051346 
	C198.875824,149.438828 197.715302,150.746872 196.346283,152.339386 
	C194.285645,154.373596 192.433517,156.123367 190.301712,158.052338 
	C187.282410,155.703064 184.542786,153.174561 181.357941,150.182587 
	C178.935089,147.824356 176.957474,145.929626 174.979843,144.034882 
	C174.138046,142.869385 173.296265,141.703888 172.336319,140.374802 
	C173.794632,138.709335 175.168900,137.139847 176.655396,135.273926 
z"/>
<path fill="#5AA640" opacity="1.000000" stroke="none" 
	d="
M174.851074,144.351715 
	C176.957474,145.929626 178.935089,147.824356 181.069794,149.975220 
	C180.865677,151.879639 180.504501,153.527969 180.070465,155.587738 
	C177.758163,153.895737 175.518692,151.792297 173.107758,149.410919 
	C173.531631,147.644852 174.126968,146.156708 174.851074,144.351715 
z"/>
<path fill="#2A2829" opacity="1.000000" stroke="none" 
	d="
M105.221138,174.760590 
	C102.212738,175.477570 99.443924,175.962540 96.326965,176.346497 
	C90.833450,171.510757 87.133789,174.925613 83.218536,178.694489 
	C80.239128,178.754913 77.287193,179.183105 74.797935,178.302872 
	C68.658905,176.132050 66.798470,169.948196 70.251991,163.625854 
	C74.292809,156.228348 78.626213,148.990692 82.956879,141.356445 
	C87.167198,137.171570 87.982635,142.759323 90.898964,144.035126 
	C91.920303,146.259140 92.960457,148.023010 92.980949,149.798660 
	C93.068619,157.394196 96.490891,160.966125 104.003868,160.859192 
	C104.822350,160.951355 105.677971,160.920685 106.453407,161.155182 
	C112.456207,162.970520 113.526260,166.964661 109.161224,171.273636 
	C107.994049,172.425812 106.697739,173.447174 105.221138,174.760590 
z"/>
<path fill="#2E2B2D" opacity="1.000000" stroke="none" 
	d="
M121.133011,129.598877 
	C118.742249,132.025482 116.526138,134.175293 114.132584,136.598282 
	C111.248581,138.562973 108.542023,140.254486 105.175812,141.708252 
	C100.292877,140.958038 95.281242,144.260910 92.060432,138.896805 
	C87.503220,133.516571 87.503220,133.516571 92.037521,125.369247 
	C93.997124,120.875618 95.896088,116.740868 97.692719,112.562126 
	C98.797607,109.992264 99.746056,107.355148 100.895233,104.417000 
	C105.559448,100.283928 110.093170,96.482079 114.826874,92.416077 
	C117.395432,93.639740 119.887131,94.967285 122.095444,96.663727 
	C124.023537,98.144905 125.632454,100.041565 127.843307,102.208084 
	C131.183990,105.480240 134.063736,108.298965 136.943481,111.117691 
	C136.993973,111.883293 137.044479,112.648895 137.023590,113.646835 
	C134.401581,116.359795 131.850967,118.840424 129.127197,121.599518 
	C126.405251,124.359367 123.856461,126.840736 121.133011,129.598877 
z"/>
<path fill="#17803D" opacity="1.000000" stroke="none" 
	d="
M91.997803,139.260452 
	C95.281242,144.260910 100.292877,140.958038 104.805649,141.692551 
	C104.760551,143.022079 104.425972,144.129562 103.676514,145.633331 
	C100.136055,146.587830 98.059265,148.231567 98.168793,151.608109 
	C98.287895,155.280518 101.009796,156.018143 103.994858,156.281967 
	C103.997391,157.553528 103.999916,158.825073 104.003159,160.477905 
	C96.490891,160.966125 93.068619,157.394196 92.980949,149.798660 
	C92.960457,148.023010 91.920303,146.259140 91.170738,144.210510 
	C91.306519,142.495483 91.620850,141.059799 91.997803,139.260452 
z"/>
<path fill="#312F30" opacity="1.000000" stroke="none" 
	d="
M144.898987,105.935669 
	C142.888306,107.714088 140.852280,108.965828 138.168350,105.777679 
	C135.174911,102.856873 132.637894,100.395935 130.100861,97.934998 
	C127.466408,95.058220 124.831963,92.181435 121.573845,88.623627 
	C128.825638,86.449348 127.824379,80.655952 128.749481,75.292107 
	C131.378464,77.419975 133.736496,79.852211 136.551071,82.746765 
	C139.347763,84.734184 141.687881,86.259285 144.328949,87.966454 
	C147.999329,90.324562 151.368774,92.500603 155.173096,94.957497 
	C151.206848,99.195534 148.052917,102.565598 144.898987,105.935669 
z"/>
<path fill="#2E2C2D" opacity="1.000000" stroke="none" 
	d="
M109.799408,74.361847 
	C112.775795,73.400063 115.518623,72.671135 118.639351,71.845589 
	C121.727699,70.936157 122.500374,71.875908 123.099754,74.743927 
	C124.686043,82.334305 119.111862,84.437935 114.166367,87.613617 
	C112.231903,87.272514 109.912605,87.165558 108.909866,85.961853 
	C106.989853,83.657028 105.818237,80.728767 104.157219,77.737068 
	C106.245483,76.523804 107.905670,75.559250 109.799408,74.361847 
z"/>
<path fill="#439C3F" opacity="1.000000" stroke="none" 
	d="
M129.903412,98.206924 
	C132.637894,100.395935 135.174911,102.856873 137.878784,105.600487 
	C137.706818,107.373520 137.368042,108.863869 136.986374,110.735954 
	C134.063736,108.298965 131.183990,105.480240 128.130142,102.381653 
	C128.539368,100.894150 129.122665,99.686501 129.903412,98.206924 
z"/>
<path fill="#489B3F" opacity="1.000000" stroke="none" 
	d="
M144.028015,87.784378 
	C141.687881,86.259285 139.347763,84.734184 136.824249,82.956345 
	C137.052078,81.368500 137.463287,80.033386 137.961182,78.290268 
	C139.884048,79.396881 141.720261,80.911507 143.788528,83.057045 
	C144.023071,85.053429 144.025543,86.418907 144.028015,87.784378 
z"/>
<path fill="#59A740" opacity="1.000000" stroke="none" 
	d="
M144.328949,87.966454 
	C144.025543,86.418907 144.023071,85.053429 144.024719,83.277725 
	C148.609772,85.693909 153.190689,88.520325 157.740417,91.927467 
	C157.477249,95.021255 157.245239,97.534317 157.013245,100.047379 
	C153.878326,103.274681 150.743393,106.501991 147.323593,109.903763 
	C146.441238,108.886528 145.843765,107.694839 145.072632,106.219406 
	C148.052917,102.565598 151.206848,99.195534 155.173096,94.957497 
	C151.368774,92.500603 147.999329,90.324562 144.328949,87.966454 
z"/>
<path fill="#55A53F" opacity="1.000000" stroke="none" 
	d="
M142.211761,125.388832 
	C143.338898,124.430222 144.453888,123.851517 145.837631,123.107620 
	C148.032547,129.373734 150.063263,135.777344 151.780457,142.263962 
	C152.061905,143.327148 150.963165,144.755707 150.502335,146.015396 
	C149.391510,145.127625 147.645294,144.447128 147.276657,143.317215 
	C145.389023,137.531433 143.856354,131.629837 142.211761,125.388832 
z"/>
<path fill="#67AF40" opacity="1.000000" stroke="none" 
	d="
M157.329163,100.168236 
	C157.245239,97.534317 157.477249,95.021255 157.907013,92.219666 
	C161.038727,96.358727 163.972672,100.786316 166.974091,105.556763 
	C166.172211,106.812500 165.302841,107.725388 164.185181,108.834000 
	C161.839615,106.116180 159.742355,103.202637 157.329163,100.168236 
z"/>
<path fill="#3D923E" opacity="1.000000" stroke="none" 
	d="
M167.090317,144.301453 
	C164.671356,147.272385 162.096115,149.906357 159.134796,152.406479 
	C158.057999,151.123184 157.367249,149.973755 156.676498,148.824326 
	C159.288040,146.032547 161.899582,143.240753 164.761597,140.233398 
	C165.652725,141.333389 166.293396,142.648941 167.090317,144.301453 
z"/>
<path fill="#21833D" opacity="1.000000" stroke="none" 
	d="
M152.125885,159.587631 
	C152.066940,159.886002 151.982010,160.176788 151.545898,160.859863 
	C149.449402,162.851013 147.678101,164.442261 145.906799,166.033508 
	C145.006393,165.137436 144.105972,164.241394 143.005768,163.091660 
	C145.316391,160.275253 147.826828,157.712524 150.719940,155.354797 
	C151.443710,156.902405 151.784805,158.245010 152.125885,159.587631 
z"/>
<path fill="#2F8B3E" opacity="1.000000" stroke="none" 
	d="
M152.391327,159.352554 
	C151.784805,158.245010 151.443710,156.902405 150.995407,155.161118 
	C152.644470,152.905823 154.400742,151.049179 156.416748,149.008438 
	C157.367249,149.973755 158.057999,151.123184 158.861450,152.588089 
	C156.868378,154.974869 154.762573,157.046173 152.391327,159.352554 
z"/>
<path fill="#2D2A2C" opacity="1.000000" stroke="none" 
	d="
M104.334106,156.143600 
	C101.009796,156.018143 98.287895,155.280518 98.168793,151.608109 
	C98.059265,148.231567 100.136055,146.587830 103.629333,145.979187 
	C109.169907,150.159439 109.312454,152.283203 104.334106,156.143600 
z"/>
<path fill="#312F30" opacity="1.000000" stroke="none" 
	d="
M145.728912,166.303772 
	C147.678101,164.442261 149.449402,162.851013 151.480438,161.077667 
	C152.491592,163.483749 153.724670,166.039062 153.904053,168.666306 
	C154.440491,176.523239 154.564423,184.408356 154.943237,192.697998 
	C153.789139,194.526672 152.541199,195.939819 151.121307,197.616928 
	C149.149506,199.516800 147.349670,201.152725 145.270279,202.973267 
	C141.974426,203.132660 138.958145,203.107407 135.493347,203.116577 
	C127.005608,202.688339 127.621208,202.626938 126.809464,194.489304 
	C126.031769,186.693100 129.311157,181.471039 134.929657,176.589050 
	C138.596329,173.078064 142.073669,169.826050 145.728912,166.303772 
z"/>
</svg>